<svg width="868" height="868" viewBox="0 0 868 868" fill="none" xmlns="http://www.w3.org/2000/svg">
<rect width="868" height="868" fill="#D9D9D9"/>
<path d="M173 690C122.722 743.231 93.5 867.499 93.5 867.499H789.5C789.5 867.499 745.302 742.732 690 690C628.155 631.029 494.5 605.999 494.5 605.999L497 585.999C497 585.999 548.652 559.689 566 528.999C580.247 503.794 582.5 456.499 582.5 456.499C582.5 456.499 615.023 452.998 619 423.499C622.977 394 597 383.499 597 383.499C597 383.499 615.329 322.623 609 283.999C603.498 250.424 596.85 229.652 574.5 203.999C534.716 158.337 425.5 160.999 425.5 160.999C309.5 160.999 285 209.499 285 209.499C285 209.499 262 209.499 251.5 229.499C239.69 251.994 242.113 268.608 243 293.999C244.305 331.365 269.5 385.999 269.5 385.999C269.5 385.999 243 395.5 248 423.499C253.801 455.985 285 456.499 285 456.499C285 456.499 286.613 503.826 301 528.999C318.568 559.738 371.5 585.999 371.5 585.999V605.999C371.5 605.999 231.921 627.618 173 690Z" fill="#888888" fill-opacity="0.933333"/>
</svg>
